# xmcd CD database file
#
# Track frame offsets:
#	150
#	12378
#	26338
#	43667
#	60784
#	76603
#	90659
#	112354
#	134658
#	149312
#	173295
#	185287
#
# Disc length: 2752 seconds
#
# Revision: 4
# Processed by: cddbd v1.5.1PL2 Copyright (c) Steve Scherf et al.
# Submitted via: CDex 1.51
#
DISCID=900abe0c
DTITLE=Les Cowboys Fringants - Sur mon canapé...
DYEAR=1998
DGENRE=Québécois
TTITLE0=Marcel Galarneau
TTITLE1=Le plombier
TTITLE2=Spécial #6
TTITLE3=Maurice au bistro
TTITLE4=Goldie
TTITLE5=Denise Martinez
TTITLE6=Mon pays (reel des aristocrates)
TTITLE7=Le quai de Berthier
TTITLE8=Grosse femme
TTITLE9=La gosse à Comeau
TTITLE10=La culbute
TTITLE11=Banlieue
EXTD=YEAR: 1998
EXTT0=
EXTT1=
EXTT2=
EXTT3=
EXTT4=
EXTT5=
EXTT6=
EXTT7=
EXTT8=
EXTT9=
EXTT10=
EXTT11=
PLAYORDER=
